<svg width="158" height="36" viewBox="0 0 158 36" fill="none" xmlns="http://www.w3.org/2000/svg">
<g id="logo">
<g id="Vector">
<path d="M122.117 0H157.619V35.5019H122.117V0Z" fill="#1742D9"/>
<path d="M127.429 27.2181V23.3259H130.968V12.0576H127.702V8.16544H135.432V23.3259H138.616V27.2181H127.429Z" fill="white"/>
<path d="M140.912 27.2181L149.117 12C149.208 11.8367 149.617 11.6089 149.617 11.5C149.617 11.4093 150.19 11.5726 150.117 11.5C150.045 11.4274 149.244 12 149.117 12L140.15 12.0576V8.16544H149.377C150.121 8.16544 150.792 8.33782 151.391 8.68258C151.99 9.02734 152.471 9.48098 152.834 10.0435C153.196 10.606 154.117 11.3105 154.117 12C153.617 13 154.117 12 153.617 13C153.117 14 153.617 13 153.117 14L145.893 27.2181H140.912Z" fill="white"/>
<path d="M126.851 7.69208H130.993V12.4257H126.851V7.69208Z" fill="#1742D9"/>
<path d="M126.851 11.834H130.993V15.9759H126.851V11.834Z" fill="white"/>
<path d="M130.993 11.834H135.726V15.9759H130.993V11.834Z" fill="#1742D9"/>
<path d="M149.117 7.69208H154.069L154.117 12H149.117V7.69208Z" fill="#1742D9"/>
<path d="M10.2612 27.4904C8.77331 27.4904 7.40333 27.2545 6.15129 26.7827C4.91741 26.2928 3.83775 25.6123 2.91234 24.7413C1.98692 23.8522 1.27018 22.8088 0.762104 21.6112C0.254032 20.4136 0 19.1072 0 17.6918C0 16.2765 0.254032 14.97 0.762104 13.7724C1.27018 12.5748 1.98692 11.5405 2.91234 10.6696C3.8559 9.78043 4.9537 9.09998 6.20573 8.6282C7.45776 8.13827 8.82775 7.89331 10.3157 7.89331C11.9306 7.89331 13.3822 8.15642 14.6706 8.68264C15.977 9.20885 17.0748 9.98003 17.964 10.9962L15.7321 13.1736C14.9881 12.4297 14.1806 11.8853 13.3097 11.5405C12.4568 11.1776 11.5133 10.9962 10.479 10.9962C9.48098 10.9962 8.55556 11.1595 7.70273 11.4861C6.84989 11.8127 6.11501 12.2754 5.49806 12.8742C4.88112 13.473 4.40026 14.1807 4.0555 14.9972C3.72888 15.8138 3.56557 16.712 3.56557 17.6918C3.56557 18.6535 3.72888 19.5427 4.0555 20.3592C4.40026 21.1758 4.88112 21.8925 5.49806 22.5094C6.11501 23.1082 6.84082 23.571 7.67551 23.8976C8.5102 24.2242 9.43562 24.3875 10.4518 24.3875C11.3953 24.3875 12.3026 24.2423 13.1736 23.952C14.0627 23.6435 14.9065 23.1355 15.7049 22.4278L17.719 25.068C16.721 25.8664 15.5597 26.4742 14.2351 26.8916C12.9286 27.2908 11.604 27.4904 10.2612 27.4904ZM14.3712 24.6052V17.4741H17.719V25.068L14.3712 24.6052Z" fill="white"/>
<path d="M19.6912 27.2182L28.265 8.16549H31.7489L40.3498 27.2182H36.6481L29.272 10.0435H30.6874L23.3385 27.2182H19.6912ZM23.6379 22.8088L24.5905 20.0326H34.879L35.8316 22.8088H23.6379Z" fill="white"/>
<path d="M42.7729 27.2182V8.16549H50.6117C52.2992 8.16549 53.7418 8.43767 54.9394 8.98204C56.1551 9.5264 57.0896 10.3067 57.7428 11.3228C58.3961 12.3389 58.7227 13.5456 58.7227 14.9428C58.7227 16.34 58.3961 17.5467 57.7428 18.5628C57.0896 19.5608 56.1551 20.332 54.9394 20.8764C53.7418 21.4026 52.2992 21.6657 50.6117 21.6657H44.7326L46.3112 20.0598V27.2182H42.7729ZM55.2388 27.2182L50.4212 20.3048H54.2045L59.0493 27.2182H55.2388ZM46.3112 20.4409L44.7326 18.7533H50.4484C52.0089 18.7533 53.1793 18.4177 53.9595 17.7463C54.7579 17.0749 55.1571 16.1404 55.1571 14.9428C55.1571 13.7271 54.7579 12.7926 53.9595 12.1393C53.1793 11.4861 52.0089 11.1595 50.4484 11.1595H44.7326L46.3112 9.41753V20.4409Z" fill="white"/>
<path d="M59.9868 27.2182L68.5605 8.16549H72.0445L80.6454 27.2182H76.9437L69.5676 10.0435H70.983L63.6341 27.2182H59.9868ZM63.9335 22.8088L64.8861 20.0326H75.1746L76.1272 22.8088H63.9335Z" fill="white"/>
<path d="M91.703 27.4904C90.215 27.4904 88.8451 27.2545 87.593 26.7827C86.3591 26.2928 85.2795 25.6123 84.3541 24.7413C83.4287 23.8522 82.7119 22.8088 82.2038 21.6112C81.6958 20.4136 81.4417 19.1072 81.4417 17.6918C81.4417 16.2765 81.6958 14.97 82.2038 13.7724C82.7119 12.5748 83.4287 11.5405 84.3541 10.6696C85.2976 9.78043 86.3954 9.09998 87.6475 8.6282C88.8995 8.13827 90.2695 7.89331 91.7574 7.89331C93.3724 7.89331 94.824 8.15642 96.1123 8.68264C97.4188 9.20885 98.5166 9.98003 99.4057 10.9962L97.1738 13.1736C96.4298 12.4297 95.6224 11.8853 94.7514 11.5405C93.8986 11.1776 92.955 10.9962 91.9207 10.9962C90.9227 10.9962 89.9973 11.1595 89.1445 11.4861C88.2916 11.8127 87.5567 12.2754 86.9398 12.8742C86.3228 13.473 85.842 14.1807 85.4972 14.9972C85.1706 15.8138 85.0073 16.712 85.0073 17.6918C85.0073 18.6535 85.1706 19.5427 85.4972 20.3592C85.842 21.1758 86.3228 21.8925 86.9398 22.5094C87.5567 23.1082 88.2826 23.571 89.1172 23.8976C89.9519 24.2242 90.8773 24.3875 91.8935 24.3875C92.8371 24.3875 93.7443 24.2423 94.6153 23.952C95.5044 23.6435 96.3482 23.1355 97.1466 22.4278L99.1607 25.068C98.1627 25.8664 97.0014 26.4742 95.6768 26.8916C94.3703 27.2908 93.0457 27.4904 91.703 27.4904ZM95.8129 24.6052V17.4741H99.1607V25.068L95.8129 24.6052Z" fill="white"/>
<path d="M107.094 16.086H116.566V18.9983H107.094V16.086ZM107.366 24.2514H118.117V27.2182H103.828V8.16549H117.736V11.1323H107.366V24.2514Z" fill="white"/>
</g>
</g>
</svg>
